<?xml version="1.0" encoding="UTF-8" standalone="no"?>
<!DOCTYPE svg PUBLIC "-//W3C//DTD SVG 1.1//EN"
 "http://www.w3.org/Graphics/SVG/1.1/DTD/svg11.dtd">
<!-- Generated by graphviz version 14.1.2 (20260124.0452)
 -->
<!-- Title: EvalDependencyDAG Pages: 1 -->
<svg width="475pt" height="281pt"
 viewBox="0.00 0.00 475.00 281.00" xmlns="http://www.w3.org/2000/svg" xmlns:xlink="http://www.w3.org/1999/xlink">
<g id="graph0" class="graph" transform="scale(1 1) rotate(0) translate(4 277)">
<title>EvalDependencyDAG</title>
<polygon fill="#1a1a2e" stroke="none" points="-4,4 -4,-277 471,-277 471,4 -4,4"/>
<!-- toxicity -->
<g id="node1" class="node">
<title>toxicity</title>
<path fill="#16213e" stroke="#16213e" stroke-width="0" d="M57.12,-273C57.12,-273 27.12,-273 27.12,-273 21.13,-273 15.12,-267 15.12,-261 15.12,-261 15.12,-249 15.12,-249 15.12,-243 21.12,-237 27.12,-237 27.12,-237 57.12,-237 57.12,-237 63.12,-237 69.12,-243 69.12,-249 69.12,-249 69.12,-261 69.12,-261 69.12,-267 63.12,-273 57.12,-273"/>
<text xml:space="preserve" text-anchor="middle" x="42.12" y="-249.97" font-family="Helvetica,sans-Serif" font-size="12.00" fill="white">toxicity</text>
</g>
<!-- composite_safety -->
<g id="node5" class="node">
<title>composite_safety</title>
<path fill="#0f3460" stroke="#ff6b6b" stroke-width="2" d="M268.12,-194C268.12,-194 183.12,-194 183.12,-194 177.12,-194 171.12,-188 171.12,-182 171.12,-182 171.12,-170 171.12,-170 171.12,-164 177.12,-158 183.12,-158 183.12,-158 268.12,-158 268.12,-158 274.12,-158 280.12,-164 280.12,-170 280.12,-170 280.12,-182 280.12,-182 280.12,-188 274.12,-194 268.12,-194"/>
<text xml:space="preserve" text-anchor="middle" x="225.62" y="-170.97" font-family="Helvetica,sans-Serif" font-size="12.00" fill="white">composite_safety</text>
</g>
<!-- toxicity&#45;&gt;composite_safety -->
<g id="edge1" class="edge">
<title>toxicity&#45;&gt;composite_safety</title>
<path fill="none" stroke="#4444aa" stroke-width="1.5" d="M68.74,-243.85C94.99,-232.42 136.61,-214.31 170.24,-199.67"/>
<polygon fill="#4444aa" stroke="#4444aa" stroke-width="1.5" points="171.45,-202.96 179.23,-195.76 168.66,-196.54 171.45,-202.96"/>
<text xml:space="preserve" text-anchor="middle" x="126.75" y="-224.33" font-family="Helvetica,sans-Serif" font-size="10.00" fill="#aaaacc">w=0.5</text>
</g>
<!-- relevance -->
<g id="node2" class="node">
<title>relevance</title>
<path fill="#16213e" stroke="#16213e" stroke-width="0" d="M64.38,-36C64.38,-36 19.88,-36 19.88,-36 13.88,-36 7.88,-30 7.88,-24 7.88,-24 7.88,-12 7.88,-12 7.88,-6 13.88,0 19.88,0 19.88,0 64.38,0 64.38,0 70.38,0 76.38,-6 76.38,-12 76.38,-12 76.38,-24 76.38,-24 76.38,-30 70.38,-36 64.38,-36"/>
<text xml:space="preserve" text-anchor="middle" x="42.12" y="-12.97" font-family="Helvetica,sans-Serif" font-size="12.00" fill="white">relevance</text>
</g>
<!-- composite_quality -->
<g id="node6" class="node">
<title>composite_quality</title>
<path fill="#0f3460" stroke="#0f3460" stroke-width="0" d="M270,-115C270,-115 181.25,-115 181.25,-115 175.25,-115 169.25,-109 169.25,-103 169.25,-103 169.25,-91 169.25,-91 169.25,-85 175.25,-79 181.25,-79 181.25,-79 270,-79 270,-79 276,-79 282,-85 282,-91 282,-91 282,-103 282,-103 282,-109 276,-115 270,-115"/>
<text xml:space="preserve" text-anchor="middle" x="225.62" y="-91.97" font-family="Helvetica,sans-Serif" font-size="12.00" fill="white">composite_quality</text>
</g>
<!-- relevance&#45;&gt;composite_quality -->
<g id="edge2" class="edge">
<title>relevance&#45;&gt;composite_quality</title>
<path fill="none" stroke="#4444aa" stroke-width="1.5" d="M75.99,-32.31C102.83,-43.99 141.27,-60.72 172.33,-74.24"/>
<polygon fill="#4444aa" stroke="#4444aa" stroke-width="1.5" points="170.75,-77.37 181.32,-78.15 173.55,-70.95 170.75,-77.37"/>
<text xml:space="preserve" text-anchor="middle" x="126.75" y="-61.62" font-family="Helvetica,sans-Serif" font-size="10.00" fill="#aaaacc">w=0.6</text>
</g>
<!-- hallucination -->
<g id="node3" class="node">
<title>hallucination</title>
<path fill="#16213e" stroke="#ff6b6b" stroke-width="2" d="M72.25,-194C72.25,-194 12,-194 12,-194 6,-194 0,-188 0,-182 0,-182 0,-170 0,-170 0,-164 6,-158 12,-158 12,-158 72.25,-158 72.25,-158 78.25,-158 84.25,-164 84.25,-170 84.25,-170 84.25,-182 84.25,-182 84.25,-188 78.25,-194 72.25,-194"/>
<text xml:space="preserve" text-anchor="middle" x="42.12" y="-170.97" font-family="Helvetica,sans-Serif" font-size="12.00" fill="white">hallucination</text>
</g>
<!-- hallucination&#45;&gt;composite_safety -->
<g id="edge3" class="edge">
<title>hallucination&#45;&gt;composite_safety</title>
<path fill="none" stroke="#ff6b6b" stroke-width="3" d="M85.22,-176C106.21,-176 132.12,-176 155.89,-176"/>
<polygon fill="#ff6b6b" stroke="#ff6b6b" stroke-width="3" points="155.81,-179.5 165.81,-176 155.81,-172.5 155.81,-179.5"/>
<text xml:space="preserve" text-anchor="middle" x="126.75" y="-177.75" font-family="Helvetica,sans-Serif" font-size="10.00" fill="#aaaacc">w=0.5</text>
</g>
<!-- fluency -->
<g id="node4" class="node">
<title>fluency</title>
<path fill="#16213e" stroke="#16213e" stroke-width="0" d="M57.25,-115C57.25,-115 27,-115 27,-115 21,-115 15,-109 15,-103 15,-103 15,-91 15,-91 15,-85 21,-79 27,-79 27,-79 57.25,-79 57.25,-79 63.25,-79 69.25,-85 69.25,-91 69.25,-91 69.25,-103 69.25,-103 69.25,-109 63.25,-115 57.25,-115"/>
<text xml:space="preserve" text-anchor="middle" x="42.12" y="-91.97" font-family="Helvetica,sans-Serif" font-size="12.00" fill="white">fluency</text>
</g>
<!-- fluency&#45;&gt;composite_quality -->
<g id="edge4" class="edge">
<title>fluency&#45;&gt;composite_quality</title>
<path fill="none" stroke="#4444aa" stroke-width="1.5" d="M69.13,-97C92.15,-97 126.76,-97 157.49,-97"/>
<polygon fill="#4444aa" stroke="#4444aa" stroke-width="1.5" points="157.22,-100.5 167.22,-97 157.22,-93.5 157.22,-100.5"/>
<text xml:space="preserve" text-anchor="middle" x="126.75" y="-98.75" font-family="Helvetica,sans-Serif" font-size="10.00" fill="#aaaacc">w=0.4</text>
</g>
<!-- composite_final -->
<g id="node7" class="node">
<title>composite_final</title>
<path fill="#1a4a7a" stroke="#ff6b6b" stroke-width="2" d="M455,-154C455,-154 379,-154 379,-154 373,-154 367,-148 367,-142 367,-142 367,-130 367,-130 367,-124 373,-118 379,-118 379,-118 455,-118 455,-118 461,-118 467,-124 467,-130 467,-130 467,-142 467,-142 467,-148 461,-154 455,-154"/>
<text xml:space="preserve" text-anchor="middle" x="417" y="-130.97" font-family="Helvetica,sans-Serif" font-size="12.00" fill="white">composite_final</text>
</g>
<!-- composite_safety&#45;&gt;composite_final -->
<g id="edge5" class="edge">
<title>composite_safety&#45;&gt;composite_final</title>
<path fill="none" stroke="#ff6b6b" stroke-width="3" d="M280.89,-164.54C303.16,-159.83 329.09,-154.36 352.26,-149.46"/>
<polygon fill="#ff6b6b" stroke="#ff6b6b" stroke-width="3" points="352.76,-152.94 361.82,-147.44 351.31,-146.09 352.76,-152.94"/>
<text xml:space="preserve" text-anchor="middle" x="324.5" y="-158.95" font-family="Helvetica,sans-Serif" font-size="10.00" fill="#aaaacc">w=0.5</text>
</g>
<!-- composite_quality&#45;&gt;composite_final -->
<g id="edge6" class="edge">
<title>composite_quality&#45;&gt;composite_final</title>
<path fill="none" stroke="#4444aa" stroke-width="1.5" d="M281.99,-101.85C309.94,-104.29 338,-106.75 338,-106.75 338,-106.75 344.94,-109.35 354.69,-113.01"/>
<polygon fill="#4444aa" stroke="#4444aa" stroke-width="1.5" points="353.44,-116.28 364.03,-116.51 355.9,-109.72 353.44,-116.28"/>
<text xml:space="preserve" text-anchor="middle" x="324.5" y="-108.5" font-family="Helvetica,sans-Serif" font-size="10.00" fill="#aaaacc">w=0.5</text>
</g>
</g>
</svg>
